<?xml version="1.0" encoding="utf-8"?>
<!-- Generator: Adobe Illustrator 26.1.0, SVG Export Plug-In . SVG Version: 6.00 Build 0)  -->
<svg version="1.1" id="Layer_1" xmlns="http://www.w3.org/2000/svg" xmlns:xlink="http://www.w3.org/1999/xlink" x="0px" y="0px"
	 width="407.5px" height="148.8px" viewBox="0 0 407.5 148.8" style="enable-background:new 0 0 407.5 148.8;" xml:space="preserve"
	>
<style type="text/css">
	.st0{fill:#45AC4D;}
	.st1{fill:#0099DA;}
</style>
<g>
	<g>
		<g>
			<g>
				<path class="st0" d="M142.7,65.5c0.4-0.1,0.7-0.2,1-0.3c1.1-0.2,2.2-0.3,3.3-0.5c0.7-0.1,1.3-0.2,2-0.3c0.1,0,0.1,0,0.2,0
					c0.8-0.1,1.1-0.2,1.4,0.9c0.8,2.7,1.4,5.5,1.9,8.3c0.2,1,0.3,2.1,0.3,3.1c0,0.6,0.1,1.3,0.1,1.9c0,0.1,0,0.2,0,0.3
					c-0.2,0.7-0.1,1.5-0.1,2.2c0,1.4-0.2,2.8-0.4,4.1c-0.4,3.1-1.1,6-2.1,8.9c-0.9,2.6-2,5.1-3.4,7.5c-1,1.7-2.1,3.4-3.2,5
					c-0.6,0.9-1.3,1.7-2,2.5c-0.9,1.2-2,2.2-3.1,3.2c-1.7,1.6-3.5,3.1-5.4,4.5c-3.1,2.2-6.3,4-9.8,5.4c-2.8,1.1-5.8,1.9-8.7,2.5
					c-1.3,0.2-2.6,0.4-3.9,0.5c-2.3,0.2-4.6,0.2-6.9,0.2c-1.2,0-2.3-0.2-3.5-0.3c-1.9-0.2-3.7-0.6-5.6-1.1c-2.4-0.6-4.7-1.4-7-2.4
					c-1.7-0.7-3.2-1.5-4.8-2.4c-1.7-1-3.4-2.1-4.9-3.3c-1.2-0.9-2.3-1.9-3.4-2.9c-2.6-2.3-4.8-5-6.7-7.8c-1.5-2.2-2.9-4.6-3.9-7.1
					c-0.6-1.5-1.2-2.9-1.7-4.4c-0.7-2.1-1.2-4.3-1.6-6.5c-0.3-2.1-0.6-4.1-0.7-6.2c0-0.8-0.2-1.7-0.1-2.5c0.2-1.5,0.1-3,0.3-4.4
					c0.3-2.3,0.7-4.6,1.3-6.8c0.7-2.4,1.5-4.8,2.6-7.1c1-2.2,2.2-4.3,3.5-6.4c1.1-1.7,2.3-3.3,3.7-4.8c1.1-1.3,2.3-2.5,3.5-3.7
					c1.4-1.3,2.8-2.5,4.4-3.6c1.2-0.8,2.4-1.7,3.7-2.5c2.1-1.3,4.4-2.4,6.7-3.3c2.2-0.9,4.5-1.6,6.9-2.1c1.4-0.3,2.8-0.6,4.3-0.8
					c3.5-0.5,7-0.5,10.5-0.3c1.2,0,2.4,0.3,3.6,0.5c0.3,0,0.7,0.1,1,0.2c0.1,0,0.2,0.1,0.4,0.2c0,0.2,0,0.3,0,0.5
					c-0.2,1.5-0.4,2.9-0.6,4.4c-0.1,0.6-0.2,1.3-0.2,1.9c-0.1,0.4-0.2,0.5-0.7,0.4c-2.5-0.3-5-0.3-7.5-0.3c-1.5,0-3,0.2-4.4,0.3
					c-1.3,0.1-2.7,0.3-4,0.6c-1.6,0.3-3.2,0.8-4.8,1.3c-2.3,0.8-4.5,1.8-6.6,3c-2.2,1.2-4.2,2.7-6.1,4.3c-2.2,1.9-4.3,4-6,6.4
					c-1.3,1.8-2.6,3.7-3.6,5.8c-1.7,3.3-2.8,6.7-3.5,10.3c-0.3,1.6-0.5,3.1-0.5,4.7c0,0.6-0.2,1.2-0.1,1.8c0.1,2.4,0.2,4.8,0.7,7.2
					c0.5,2.7,1.3,5.4,2.4,7.9c1,2.3,2.2,4.5,3.6,6.6c1.8,2.6,3.8,4.9,6.1,7c2,1.8,4.1,3.4,6.4,4.7c2.5,1.4,5.1,2.6,7.8,3.5
					c1.9,0.6,3.8,1,5.7,1.3c3.1,0.5,6.1,0.5,9.2,0.3c2.5-0.1,4.9-0.6,7.3-1.3c2.3-0.6,4.5-1.5,6.6-2.5c1.9-0.9,3.7-2,5.5-3.3
					c1.4-1.1,2.8-2.2,4.1-3.4c3-2.8,5.4-6,7.4-9.6c1.8-3.3,3.1-6.8,3.9-10.5c0.2-1.1,0.3-2.2,0.5-3.3c0.2-1.2,0.2-2.4,0.2-3.6
					c0-0.2,0.1-0.5,0.1-0.7c0-0.2,0.1-0.4,0-0.6c-0.2-0.7-0.1-1.3-0.1-2c-0.1-1.6-0.3-3.2-0.5-4.8c-0.3-1.9-0.8-3.8-1.4-5.7
					C142.8,65.9,142.8,65.8,142.7,65.5z"/>
				<path class="st0" d="M98,53.2c0.1,1,0,2,0,2.9c0,1,0,2,0,2.9s0,2,0,2.9c0,1,0,2,0,3c0,1,0,2,0,2.9s0,2,0,2.9s0,2,0,3
					c0.3,0.1,0.5,0.1,0.7,0.1c1.8,0,3.5,0,5.3,0c2.8,0,5.6,0,8.3,0c0.3,0,0.7,0,1,0c0.3-0.3,0.2-0.7,0.2-1c0-3.1,0-6.3,0-9.4
					c0-0.4,0-0.7,0-1.2c0.2-0.1,0.4-0.2,0.7-0.2c0.4,0,0.8,0,1.2,0c0.4,0,0.7,0.2,0.8,0.6c0.2,0.7,0.6,1.4,1,2
					c1.2,1.7,2.9,2.5,5,2.7c1.6,0.1,3-0.3,4.3-1.2c0.3-0.2,0.6-0.5,0.8-0.7c0.2-0.2,0.3-0.3,0.6-0.5c0.1,0.2,0.2,0.3,0.2,0.4
					c0,0.3,0,0.5,0,0.8c0,12.3,0,24.7,0,37c0,0.3,0,0.5,0,0.8c0,0.2-0.2,0.4-0.4,0.4c-0.2,0-0.5,0-0.7,0c-4.2,0-8.3,0-12.5,0
					c-0.3,0-0.6,0-0.9,0c-0.1-0.2-0.1-0.4-0.2-0.6c0-0.3,0-0.6,0-0.9c0-6.1,0-12.1,0-18.2c0-0.4,0-0.7,0-1.2c-1.3-0.1-2.6,0-3.9-0.1
					c-1.3,0-2.6,0-3.8,0c-1.2,0-2.5,0-3.8,0c-1.3,0-2.6,0-3.8,0c-0.2,0.4-0.1,0.8-0.1,1.1c0,6.1,0,12.2,0,18.4
					c0,0.4,0.1,0.8-0.1,1.2c-0.2,0.1-0.4,0.1-0.6,0.1c-0.2,0-0.3,0-0.5,0c-4.1,0-8.2,0-12.4,0c-0.3,0-0.7,0.1-1.1-0.1
					c0-0.2-0.1-0.3-0.1-0.5c0-0.2,0-0.5,0-0.7c0-16.2,0-32.3,0-48.5c0-0.3,0-0.5,0-0.8c0-0.5,0.2-0.7,0.8-0.7c0.2,0,0.3,0,0.5,0
					c4.1,0,8.2,0,12.3,0C97.2,53,97.5,53,98,53.2z"/>
				<path class="st0" d="M122.9,30.3c0-0.4,0-0.6,0-0.8c0.3-1.9,0.5-3.7,0.8-5.6c0-0.1,0-0.1,0-0.2c0.1-0.4,0.3-0.6,0.7-0.4
					c0.4,0.2,0.8,0.3,1.2,0.5c1.4,0.6,2.9,1.2,4.3,2c1.6,0.8,3.3,1.8,4.9,2.7c2.1,1.3,4,2.7,5.9,4.2c2.4,1.9,4.6,4,6.7,6.3
					c1.1,1.2,2.1,2.5,3.1,3.7c1.6,2,3,4.1,4.3,6.3c1.3,2.1,2.5,4.2,3.5,6.5c0.2,0.5,0.5,1,0.7,1.5c0.1,0.2,0.1,0.4,0.2,0.6
					c-0.4,0.2-0.8,0.3-1.2,0.4c-1.3,0.2-2.7,0.4-4,0.6c-0.5,0.1-1,0.1-1.5,0.2c-0.3,0-0.5-0.1-0.6-0.3c-0.1-0.2-0.2-0.4-0.3-0.6
					c-0.5-1-1-2.1-1.6-3.1c-0.6-1.1-1.3-2.2-1.9-3.3c-1.1-1.9-2.5-3.7-3.9-5.4c-0.4-0.5-0.8-1-1.2-1.5c-0.8-0.9-1.6-1.8-2.4-2.6
					c-0.8-0.8-1.6-1.5-2.5-2.3c-1.1-1-2.3-2-3.6-2.8c-1.8-1.2-3.5-2.5-5.5-3.5c-0.8-0.4-1.6-0.9-2.4-1.3c-1-0.5-2-0.9-2.9-1.3
					C123.4,30.6,123.2,30.5,122.9,30.3z"/>
				<path class="st0" d="M149,59.1c-0.3,0.1-0.4,0.2-0.6,0.2c-1.7,0.3-3.4,0.5-5.1,0.8c-0.1,0-0.3,0-0.4,0c-0.6,0-0.8,0-1-0.6
					c-0.9-2-2-3.9-3.2-5.7c-0.9-1.3-1.8-2.6-2.8-3.8c-0.8-1-1.7-1.9-2.6-2.8c-2.1-2.1-4.4-3.9-6.8-5.5c-1.2-0.8-2.4-1.4-3.6-2
					c-0.4-0.2-0.7-0.4-1-0.5c-0.2-0.8,0.1-1.5,0.1-2.2c0.1-0.7,0.2-1.4,0.3-2.1c0.2-0.7,0-1.4,0.5-2.1c0.2,0,0.4,0.1,0.5,0.2
					c3,1.4,5.9,3.1,8.6,5.1c3.2,2.3,6.2,5,8.8,7.9c2,2.2,3.7,4.5,5.2,7.1c0.9,1.5,1.8,3.1,2.5,4.7C148.6,58.1,148.7,58.6,149,59.1z"
					/>
				<path class="st1" d="M133.8,61.5c-0.3-0.7-0.7-1.4-1-2c-0.9-1.9-2.1-3.5-3.5-5c-1.5-1.6-3.1-3-4.9-4.2c-1.1-0.8-2.3-1.4-3.5-2.1
					c-0.2-0.1-0.4-0.3-0.6-0.4c0.2-1.2,0.3-2.3,0.5-3.5c0.1-0.6,0.2-1.2,0.3-1.8c0.1-0.3,0.3-0.4,0.5-0.3c0.2,0.1,0.5,0.2,0.7,0.3
					c2.4,1.2,4.7,2.7,6.8,4.4c1.1,0.9,2.3,1.9,3.3,3c1.9,2,3.6,4.2,5,6.6c0.7,1.1,1.3,2.3,1.8,3.5c0,0.1,0.1,0.2,0.1,0.3
					c0.1,0.3,0,0.5-0.3,0.5c-0.3,0.1-0.5,0.1-0.8,0.1c-1.4,0.2-2.7,0.5-4.1,0.7C134,61.6,133.9,61.6,133.8,61.5z"/>
				<path class="st1" d="M127.6,58.7c0,2.3-1.8,4.5-4.5,4.5c-2.4,0-4.5-2.1-4.5-4.5c0-2.4,2.1-4.5,4.6-4.5
					C125.5,54.3,127.5,56.1,127.6,58.7z"/>
			</g>
		</g>
	</g>
	<g>
		<path class="st1" d="M174.1,93.6h-5.4v-2.1h13.1v2.1h-5.4v14.7H174L174.1,93.6L174.1,93.6z"/>
		<path class="st1" d="M195.6,91.4h10.8v2.1h-8.6v5h8v2.1h-8v5.4h9v2.1h-11.3V91.4z"/>
		<path class="st1" d="M221.4,91.4h2.3v14.7h7.7v2.1h-10V91.4z"/>
		<path class="st1" d="M245.1,91.4H256v2.1h-8.6v5h8v2.1h-8v5.4h9v2.1h-11.3L245.1,91.4L245.1,91.4z"/>
		<path class="st1" d="M282.7,95.1c-0.5-0.6-1.1-1.1-1.8-1.4c-0.7-0.3-1.5-0.5-2.2-0.5c-1,0-1.8,0.2-2.6,0.5c-0.8,0.4-1.4,0.8-2,1.5
			s-1,1.3-1.3,2.2s-0.5,1.7-0.5,2.7c0,0.9,0.1,1.7,0.4,2.5c0.3,0.8,0.7,1.5,1.2,2.1c0.5,0.6,1.2,1.1,2,1.4c0.8,0.3,1.6,0.5,2.6,0.5
			c1,0,1.8-0.2,2.5-0.6c0.7-0.4,1.3-0.9,1.9-1.7l1.9,1.4c-0.1,0.2-0.4,0.4-0.7,0.8c-0.3,0.3-0.7,0.7-1.3,1c-0.5,0.3-1.1,0.6-1.9,0.8
			c-0.7,0.2-1.6,0.4-2.5,0.4c-1.3,0-2.5-0.2-3.6-0.8c-1.1-0.5-2-1.2-2.7-2s-1.3-1.8-1.7-2.8S270,101,270,100c0-1.3,0.2-2.5,0.6-3.6
			c0.4-1.1,1-2.1,1.8-2.8c0.8-0.8,1.7-1.4,2.8-1.9c1.1-0.4,2.3-0.7,3.6-0.7c1.1,0,2.2,0.2,3.3,0.6s1.9,1.1,2.6,2L282.7,95.1z"/>
		<path class="st1" d="M306.8,108.7c-1.3,0-2.5-0.2-3.5-0.7c-1.1-0.4-2-1.1-2.8-1.9c-0.8-0.8-1.4-1.7-1.8-2.8
			c-0.4-1.1-0.6-2.2-0.6-3.5s0.2-2.4,0.6-3.5c0.4-1.1,1-2,1.8-2.8c0.8-0.8,1.7-1.4,2.8-1.9s2.2-0.7,3.5-0.7s2.5,0.2,3.5,0.7
			s2,1.1,2.8,1.9c0.8,0.8,1.4,1.7,1.8,2.8s0.6,2.2,0.6,3.5s-0.2,2.4-0.6,3.5c-0.4,1.1-1,2-1.8,2.8c-0.8,0.8-1.7,1.4-2.8,1.9
			C309.2,108.4,308.1,108.7,306.8,108.7z M306.8,106.5c1,0,1.8-0.2,2.6-0.5c0.8-0.4,1.4-0.8,2-1.4s1-1.3,1.3-2.1
			c0.3-0.8,0.5-1.7,0.5-2.6s-0.1-1.8-0.5-2.6c-0.3-0.8-0.7-1.5-1.3-2.1c-0.5-0.6-1.2-1.1-2-1.4s-1.6-0.5-2.6-0.5s-1.8,0.2-2.6,0.5
			c-0.8,0.4-1.4,0.8-2,1.4c-0.5,0.6-1,1.3-1.3,2.1c-0.3,0.8-0.5,1.7-0.5,2.6s0.1,1.8,0.5,2.6c0.3,0.8,0.7,1.5,1.3,2.1
			c0.5,0.6,1.2,1.1,2,1.4C305,106.3,305.8,106.5,306.8,106.5z"/>
		<path class="st1" d="M328.7,91.1V91l9,11.1h0.1l8.4-11.1v0.1v17.1h-2.6v-9.7h0l-5.5,8.2l0,0l-6.7-8.2h0v9.7h-2.6L328.7,91.1
			L328.7,91.1z"/>
	</g>
	<g>
		<path class="st0" d="M168.6,53.5h3.3v11.1h12.6V53.5h3.3v26.8h-3.3V68h-12.6v12.3h-3.3L168.6,53.5L168.6,53.5z"/>
		<path class="st0" d="M205.9,81c-1.9,0-3.6-0.4-5.1-1.1c-1.6-0.7-2.9-1.7-4-3s-2-2.8-2.6-4.5c-0.6-1.7-0.9-3.6-0.9-5.6
			s0.3-3.8,0.9-5.6s1.5-3.2,2.6-4.5c1.1-1.3,2.4-2.2,4-3s3.3-1.1,5.1-1.1s3.6,0.4,5.1,1.1c1.6,0.7,2.9,1.7,4,3
			c1.1,1.3,2,2.8,2.6,4.5c0.6,1.7,0.9,3.6,0.9,5.6s-0.3,3.8-0.9,5.6s-1.5,3.2-2.6,4.5c-1.1,1.3-2.4,2.2-4,3
			C209.4,80.6,207.7,81,205.9,81z M205.9,77.6c1.4,0,2.6-0.3,3.8-0.8c1.1-0.6,2.1-1.3,2.9-2.3s1.4-2.1,1.9-3.4
			c0.4-1.3,0.6-2.7,0.6-4.2c0-1.5-0.2-2.8-0.6-4.2c-0.4-1.3-1.1-2.4-1.9-3.4s-1.8-1.7-2.9-2.3c-1.1-0.6-2.4-0.8-3.8-0.8
			s-2.6,0.3-3.8,0.8c-1.1,0.6-2.1,1.3-2.9,2.3s-1.4,2.1-1.9,3.4c-0.4,1.3-0.6,2.7-0.6,4.2s0.2,2.8,0.6,4.2s1.1,2.4,1.9,3.4
			s1.8,1.7,2.9,2.3S204.5,77.6,205.9,77.6z"/>
		<path class="st0" d="M223.9,53.5h8.5c1.6,0,2.8,0.2,3.8,0.7c1,0.5,1.8,1.1,2.4,1.8c0.6,0.7,1,1.5,1.2,2.4s0.3,1.8,0.3,2.6
			c0,0.9-0.1,1.7-0.4,2.5c-0.3,0.8-0.7,1.5-1.2,2.2s-1.1,1.2-1.9,1.6c-0.7,0.4-1.6,0.7-2.5,0.8l6.9,12.2h-4.1l-6.2-11.8h-3.7v11.8
			h-3.3L223.9,53.5L223.9,53.5z M227.2,65.3h4.3c0.6,0,1.3-0.1,1.9-0.2c0.6-0.1,1.2-0.3,1.7-0.6c0.5-0.3,0.9-0.7,1.2-1.3
			c0.3-0.6,0.4-1.3,0.4-2.2s-0.1-1.7-0.4-2.2s-0.7-1-1.2-1.3c-0.5-0.3-1.1-0.5-1.7-0.6c-0.6-0.1-1.3-0.2-1.9-0.2h-4.3V65.3z"/>
		<path class="st0" d="M245.3,53.5v-0.2l13.1,17.4h0.1l12.1-17.3v0.2v26.8h-3.8V65.1h-0.1L258.8,78l0,0l-9.7-12.9h-0.1v15.2h-3.8
			L245.3,53.5L245.3,53.5z"/>
		<path class="st0" d="M280.1,53.5v16.5c0,0.8,0.1,1.7,0.3,2.6s0.5,1.7,1,2.5s1.1,1.4,1.9,1.9c0.8,0.5,1.7,0.7,2.9,0.7
			s2.1-0.2,2.9-0.7s1.4-1.1,1.9-1.9c0.5-0.8,0.8-1.6,1-2.5s0.3-1.8,0.3-2.6V53.5h3.3v17c0,1.6-0.2,3-0.7,4.3c-0.5,1.3-1.1,2.4-2,3.3
			c-0.9,0.9-1.8,1.7-3,2.2s-2.4,0.8-3.7,0.8c-1.3,0-2.6-0.2-3.7-0.8s-2.1-1.2-3-2.2c-0.9-0.9-1.5-2-2-3.3c-0.5-1.3-0.7-2.7-0.7-4.3
			v-17H280.1z"/>
		<path class="st0" d="M304.9,53.5v16.5c0,0.8,0.1,1.7,0.3,2.6s0.5,1.7,1,2.5s1.1,1.4,1.9,1.9c0.8,0.5,1.7,0.7,2.9,0.7
			s2.1-0.2,2.9-0.7s1.4-1.1,1.9-1.9c0.5-0.8,0.8-1.6,1-2.5s0.3-1.8,0.3-2.6V53.5h3.3v17c0,1.6-0.2,3-0.7,4.3c-0.5,1.3-1.1,2.4-2,3.3
			c-0.9,0.9-1.8,1.7-3,2.2S312.3,81,311,81c-1.3,0-2.6-0.2-3.7-0.8s-2.1-1.2-3-2.2c-0.9-0.9-1.5-2-2-3.3c-0.5-1.3-0.7-2.7-0.7-4.3
			v-17H304.9z"/>
		<path class="st0" d="M326.3,53.5h8.5c1.7,0,3.2,0.2,4.5,0.6c1.3,0.4,2.4,1,3.4,1.7c1,0.7,1.7,1.5,2.4,2.5c0.6,0.9,1.1,1.9,1.5,2.9
			s0.6,2,0.8,3c0.2,1,0.2,1.9,0.2,2.7c0,1.7-0.3,3.4-0.9,5c-0.6,1.6-1.4,3-2.5,4.3s-2.5,2.2-4.2,3c-1.7,0.8-3.6,1.1-5.7,1.1h-7.9
			L326.3,53.5L326.3,53.5z M329.6,76.9h4.1c1.4,0,2.7-0.2,4-0.6c1.2-0.4,2.3-1,3.3-1.9c0.9-0.8,1.7-1.9,2.2-3.1
			c0.5-1.2,0.8-2.7,0.8-4.4c0-0.9-0.1-1.9-0.4-3c-0.2-1.2-0.7-2.2-1.4-3.3c-0.7-1-1.7-1.9-2.9-2.6c-1.2-0.7-2.8-1.1-4.8-1.1h-4.9
			V76.9z"/>
	</g>
</g>
</svg>
