<?xml version="1.0" encoding="UTF-8" standalone="no" ?>
<!DOCTYPE svg PUBLIC "-//W3C//DTD SVG 1.1//EN" "http://www.w3.org/Graphics/SVG/1.1/DTD/svg11.dtd">
<svg xmlns="http://www.w3.org/2000/svg" xmlns:xlink="http://www.w3.org/1999/xlink" version="1.1" width="2058" height="554" viewBox="0 0 2058 554" xml:space="preserve">
<desc>Created with Fabric.js 3.6.3</desc>
<defs>
</defs>
<g transform="matrix(1 0 0 1 310.42 123)"  >
<path style="stroke: none; stroke-width: 1; stroke-dasharray: none; stroke-linecap: butt; stroke-dashoffset: 0; stroke-linejoin: miter; stroke-miterlimit: 4; fill: rgb(28,38,91); fill-rule: evenodd; opacity: 0.98;"  transform=" translate(-310.42, -123)" d="M 204.5 -0.5 C 246.167 -0.5 287.833 -0.5 329.5 -0.5 C 337.473 2.07383 343.973 6.74049 349 13.5 C 382.919 71.6699 416.586 130.003 450 188.5 C 452.738 194.725 453.071 201.058 451 207.5 C 444.005 220.827 436.505 233.827 428.5 246.5 C 391.51 183.863 355.01 120.863 319 57.5 C 316.635 51.7979 312.469 48.2979 306.5 47 C 260.496 46.8333 214.496 46.3333 168.5 45.5 C 174.667 34.5 180.833 23.5 187 12.5 C 191.606 6.37825 197.439 2.04491 204.5 -0.5 Z" stroke-linecap="round" />
</g>
<g transform="matrix(1 0 0 1 1979 274.56)"  >
<path style="stroke: none; stroke-width: 1; stroke-dasharray: none; stroke-linecap: butt; stroke-dashoffset: 0; stroke-linejoin: miter; stroke-miterlimit: 4; fill: rgb(242,160,13); fill-rule: evenodd; opacity: 0.971;"  transform=" translate(-1979, -202.56)" d="M 2057.5 342.5 C 2057.5 343.5 2057.5 344.5 2057.5 345.5 C 2043.82 345.833 2030.15 345.499 2016.5 344.5 C 1995.18 309.678 1968.35 279.678 1936 254.5 C 1935.5 284.832 1935.33 315.165 1935.5 345.5 C 1923.83 345.5 1912.17 345.5 1900.5 345.5 C 1900.5 252.167 1900.5 158.833 1900.5 65.5 C 1912.1 63.8732 1923.6 61.8732 1935 59.5 C 1935.33 117.167 1935.67 174.833 1936 232.5 C 1961.6 207.238 1986.1 181.071 2009.5 154 C 2023.18 153.167 2036.85 153.334 2050.5 154.5 C 2025.12 184.055 1998.45 212.555 1970.5 240 C 2005.05 269.714 2034.05 303.881 2057.5 342.5 Z" stroke-linecap="round" />
</g>
<g transform="matrix(1 0 0 1 354.99 236.59)"  >
<path style="stroke: none; stroke-width: 1; stroke-dasharray: none; stroke-linecap: butt; stroke-dashoffset: 0; stroke-linejoin: miter; stroke-miterlimit: 4; fill: rgb(242,160,13); fill-rule: evenodd; opacity: 0.98;"  transform=" translate(-354.99, -236.59)" d="M 419.5 76.5 C 434.685 75.2549 450.018 75.4216 465.5 77 C 473.013 78.8378 478.847 83.0045 483 89.5 C 500 118.833 517 148.167 534 177.5 C 541.617 191.685 541.283 205.685 533 219.5 C 501.333 274.167 469.667 328.833 438 383.5 C 433.269 389.783 427.102 393.95 419.5 396 C 349.509 397.572 279.509 397.906 209.5 397 C 200.422 395.243 193.589 390.41 189 382.5 C 183.033 371.704 176.866 361.037 170.5 350.5 C 246.164 349.667 321.831 349.167 397.5 349 C 401.066 348.3 403.9 346.467 406 343.5 C 431.747 298.337 457.747 253.337 484 208.5 C 488.59 201.47 488.59 194.47 484 187.5 C 462.473 150.437 440.973 113.437 419.5 76.5 Z" stroke-linecap="round" />
</g>
<g transform="matrix(1 0 0 1 202.99 200.45)"  >
<path style="stroke: none; stroke-width: 1; stroke-dasharray: none; stroke-linecap: butt; stroke-dashoffset: 0; stroke-linejoin: miter; stroke-miterlimit: 4; fill: rgb(242,160,13); fill-rule: evenodd; opacity: 0.976;"  transform=" translate(-202.99, -200.45)" d="M -0.5 205.5 C -0.5 200.5 -0.5 195.5 -0.5 190.5 C 17.3724 158.432 35.539 126.432 54 94.5 C 59.89 84.2875 68.7233 78.4541 80.5 77 C 147.5 76.3333 214.5 76.3333 281.5 77 C 290.196 79.0227 297.363 83.5227 303 90.5 C 337 149.167 371 207.833 405 266.5 C 407.503 275.129 406.836 283.462 403 291.5 C 396.581 302.003 390.414 312.67 384.5 323.5 C 383.726 324.711 382.893 324.711 382 323.5 C 344.464 257.59 306.298 192.09 267.5 127 C 266.167 126.333 264.833 125.667 263.5 125 C 208.167 124.333 152.833 124.333 97.5 125 C 93.9338 125.7 91.1005 127.533 89 130.5 C 67.0661 169.425 44.7328 208.092 22 246.5 C 13.4418 233.381 5.94182 219.715 -0.5 205.5 Z" stroke-linecap="round" />
</g>
<g transform="matrix(1 0 0 1 1126.64 289.35)"  >
<path style="stroke: none; stroke-width: 1; stroke-dasharray: none; stroke-linecap: butt; stroke-dashoffset: 0; stroke-linejoin: miter; stroke-miterlimit: 4; fill: rgb(28,38,91); fill-rule: evenodd; opacity: 0.981;"  transform=" translate(-1126.64, -217.35)" d="M 1118.5 84.5 C 1146.62 82.5196 1173.62 87.0196 1199.5 98 C 1202.53 99.1776 1205.2 100.844 1207.5 103 C 1202.13 118.292 1196.46 133.459 1190.5 148.5 C 1165.2 134.385 1138.53 130.885 1110.5 138 C 1102.21 141.571 1097.88 147.904 1097.5 157 C 1098.17 166.011 1102.5 172.677 1110.5 177 C 1114.89 179.861 1119.55 182.194 1124.5 184 C 1145.19 190.677 1165.19 199.011 1184.5 209 C 1204.76 220.62 1216.26 238.12 1219 261.5 C 1224.13 308.022 1203.96 336.522 1158.5 347 C 1121.45 353.777 1085.12 351.111 1049.5 339 C 1044.5 336.667 1039.5 334.333 1034.5 332 C 1033.98 331.439 1033.64 330.772 1033.5 330 C 1038.88 314.684 1044.55 299.517 1050.5 284.5 C 1080.31 300.309 1111.64 304.475 1144.5 297 C 1159.5 289.32 1163.34 277.82 1156 262.5 C 1148.59 254.543 1139.76 248.71 1129.5 245 C 1113.6 239.589 1097.93 233.589 1082.5 227 C 1044.84 208.835 1031 179.335 1041 138.5 C 1047.92 116.583 1062.08 101.417 1083.5 93 C 1094.96 88.7168 1106.63 85.8835 1118.5 84.5 Z" stroke-linecap="round" />
</g>
<g transform="matrix(1 0 0 1 903.63 289.92)"  >
<path style="stroke: none; stroke-width: 1; stroke-dasharray: none; stroke-linecap: butt; stroke-dashoffset: 0; stroke-linejoin: miter; stroke-miterlimit: 4; fill: rgb(28,38,91); fill-rule: evenodd; opacity: 0.984;"  transform=" translate(-903.63, -217.92)" d="M 858.5 87.5 C 885.819 85.9902 912.819 88.1569 939.5 94 C 981.893 106.949 998.393 135.115 989 178.5 C 983.71 190.458 975.543 199.958 964.5 207 C 995.199 220.881 1008.37 244.715 1004 278.5 C 1000.56 306.265 986.063 325.765 960.5 337 C 935.492 346.144 909.659 349.978 883 348.5 C 855.892 349.087 829.059 346.754 802.5 341.5 C 802.333 259.166 802.5 176.833 803 94.5 C 821.452 90.9514 839.952 88.618 858.5 87.5 Z M 870.5 134.5 C 883.202 134.208 895.869 134.708 908.5 136 C 931.482 139.473 939.649 152.306 933 174.5 C 928.847 180.996 923.013 185.162 915.5 187 C 908.276 188.769 900.943 189.769 893.5 190 C 882.172 190.5 870.838 190.667 859.5 190.5 C 859.5 172.167 859.5 153.833 859.5 135.5 C 863.371 135.815 867.038 135.482 870.5 134.5 Z M 859.5 234.5 C 873.837 234.333 888.171 234.5 902.5 235 C 914.245 235.353 925.245 238.353 935.5 244 C 944.97 253.38 947.804 264.546 944 277.5 C 940.859 285.974 935.026 291.808 926.5 295 C 919.372 297.559 912.038 299.226 904.5 300 C 889.482 300.73 874.482 300.564 859.5 299.5 C 859.5 277.833 859.5 256.167 859.5 234.5 Z" stroke-linecap="round" />
</g>
<g transform="matrix(1 0 0 1 1358.17 289.46)"  >
<path style="stroke: none; stroke-width: 1; stroke-dasharray: none; stroke-linecap: butt; stroke-dashoffset: 0; stroke-linejoin: miter; stroke-miterlimit: 4; fill: rgb(242,160,13); fill-rule: evenodd; opacity: 0.97;"  transform=" translate(-1358.17, -217.46)" d="M 1322.5 87.5 C 1348.06 86.4866 1373.06 89.6532 1397.5 97 C 1433.16 112.16 1445.99 138.66 1436 176.5 C 1429.92 191.581 1419.42 202.414 1404.5 209 C 1442.46 221.726 1457.62 247.893 1450 287.5 C 1443.34 315.162 1426.17 332.662 1398.5 340 C 1377.21 345.648 1355.54 348.148 1333.5 347.5 C 1310.28 347.723 1287.28 345.723 1264.5 341.5 C 1264.33 259.166 1264.5 176.833 1265 94.5 C 1270.65 92.5708 1276.48 91.4041 1282.5 91 C 1295.96 89.4994 1309.29 88.3328 1322.5 87.5 Z M 1313.5 118.5 C 1327.87 118.177 1342.2 118.677 1356.5 120 C 1368.49 121.441 1379.49 125.441 1389.5 132 C 1400.94 143.078 1404.1 156.244 1399 171.5 C 1394.2 181.174 1386.7 188.007 1376.5 192 C 1368.05 194.742 1359.38 196.409 1350.5 197 C 1334.17 197.5 1317.84 197.667 1301.5 197.5 C 1301.5 171.5 1301.5 145.5 1301.5 119.5 C 1305.7 119.817 1309.7 119.483 1313.5 118.5 Z M 1301.5 227.5 C 1322.5 227.333 1343.5 227.5 1364.5 228 C 1377.62 228.819 1389.62 232.819 1400.5 240 C 1412.67 252.171 1416.51 266.671 1412 283.5 C 1407.19 296.308 1398.36 305.141 1385.5 310 C 1376.12 313.396 1366.46 315.396 1356.5 316 C 1338.15 316.766 1319.81 316.599 1301.5 315.5 C 1301.5 286.167 1301.5 256.833 1301.5 227.5 Z" stroke-linecap="round" />
</g>
<g transform="matrix(1 0 0 1 716.5 290)"  >
<path style="stroke: none; stroke-width: 1; stroke-dasharray: none; stroke-linecap: butt; stroke-dashoffset: 0; stroke-linejoin: miter; stroke-miterlimit: 4; fill: rgb(28,38,91); fill-rule: evenodd; opacity: 0.989;"  transform=" translate(-716.5, -218)" d="M 687.5 90.5 C 706.833 90.5 726.167 90.5 745.5 90.5 C 745.5 175.5 745.5 260.5 745.5 345.5 C 726.167 345.5 706.833 345.5 687.5 345.5 C 687.5 260.5 687.5 175.5 687.5 90.5 Z" stroke-linecap="round" />
</g>
<g transform="matrix(1 0 0 1 1559.86 321.3)"  >
<path style="stroke: none; stroke-width: 1; stroke-dasharray: none; stroke-linecap: butt; stroke-dashoffset: 0; stroke-linejoin: miter; stroke-miterlimit: 4; fill: rgb(242,160,13); fill-rule: evenodd; opacity: 0.973;"  transform=" translate(-1559.86, -249.3)" d="M 1539.5 149.5 C 1552.17 149.333 1564.84 149.5 1577.5 150 C 1613.41 155.271 1632.24 176.104 1634 212.5 C 1634.5 255.832 1634.67 299.165 1634.5 342.5 C 1605.38 347.645 1576.05 349.812 1546.5 349 C 1498.51 344.184 1478.67 318.017 1487 270.5 C 1492.66 254.842 1503.16 243.676 1518.5 237 C 1545.32 227.201 1572.48 226.034 1600 233.5 C 1602.71 192.212 1583.54 174.379 1542.5 180 C 1530.94 181.079 1519.61 183.245 1508.5 186.5 C 1507.18 176.798 1506.02 167.131 1505 157.5 C 1516.35 153.733 1527.85 151.067 1539.5 149.5 Z M 1554.5 257.5 C 1564.84 257.334 1575.17 257.5 1585.5 258 C 1590.33 258.541 1595 259.707 1599.5 261.5 C 1600.5 280.155 1600.83 298.821 1600.5 317.5 C 1583.9 319.477 1567.23 319.977 1550.5 319 C 1523.74 314.327 1514.91 299.16 1524 273.5 C 1532.09 264.04 1542.26 258.707 1554.5 257.5 Z" stroke-linecap="round" />
</g>
<g transform="matrix(1 0 0 1 1766.97 319.38)"  >
<path style="stroke: none; stroke-width: 1; stroke-dasharray: none; stroke-linecap: butt; stroke-dashoffset: 0; stroke-linejoin: miter; stroke-miterlimit: 4; fill: rgb(242,160,13); fill-rule: evenodd; opacity: 0.976;"  transform=" translate(-1766.97, -247.38)" d="M 1753.5 149.5 C 1771.71 148.453 1789.37 150.953 1806.5 157 C 1826.35 167.198 1838.18 183.364 1842 205.5 C 1842.83 210.143 1843.5 214.81 1844 219.5 C 1844.5 261.499 1844.67 303.499 1844.5 345.5 C 1832.83 345.5 1821.17 345.5 1809.5 345.5 C 1809.67 306.165 1809.5 266.832 1809 227.5 C 1808.58 196.41 1792.91 180.744 1762 180.5 C 1749.41 181.101 1736.91 182.435 1724.5 184.5 C 1724.5 238.167 1724.5 291.833 1724.5 345.5 C 1712.83 345.5 1701.17 345.5 1689.5 345.5 C 1689.17 283.496 1689.5 221.496 1690.5 159.5 C 1711.31 154.1 1732.31 150.767 1753.5 149.5 Z" stroke-linecap="round" />
</g>
<g transform="matrix(1 0 0 1 83.75 314.47)"  >
<path style="stroke: none; stroke-width: 1; stroke-dasharray: none; stroke-linecap: butt; stroke-dashoffset: 0; stroke-linejoin: miter; stroke-miterlimit: 4; fill: rgb(28,38,91); fill-rule: evenodd; opacity: 0.978;"  transform=" translate(-83.75, -314.47)" d="M 117.5 153.5 C 133.17 153.333 148.837 153.5 164.5 154 C 127.605 219.624 91.1052 285.457 55 351.5 C 55.1875 356.902 56.8542 361.902 60 366.5 C 81.7076 402.75 103.541 438.916 125.5 475 C 110.833 475.667 96.1667 475.667 81.5 475 C 72.0752 472.901 64.9085 467.734 60 459.5 C 41.4147 428.665 23.0814 397.665 5 366.5 C 1.79244 356.602 2.45911 346.936 7 337.5 C 38.3333 280.833 69.6667 224.167 101 167.5 C 105.198 161.123 110.698 156.456 117.5 153.5 Z" stroke-linecap="round" />
</g>
<g transform="matrix(1 0 0 1 229.52 352.91)"  >
<path style="stroke: none; stroke-width: 1; stroke-dasharray: none; stroke-linecap: butt; stroke-dashoffset: 0; stroke-linejoin: miter; stroke-miterlimit: 4; fill: rgb(242,160,13); fill-rule: evenodd; opacity: 0.978;"  transform=" translate(-229.52, -352.91)" d="M 329.5 553.5 C 290.5 553.5 251.5 553.5 212.5 553.5 C 202.872 550.712 195.372 545.046 190 536.5 C 157.333 479.833 124.667 423.167 92 366.5 C 89.5158 356.91 90.1824 347.577 94 338.5 C 127 280.833 160 223.167 193 165.5 C 203.692 154.077 216.858 150.077 232.5 153.5 C 240.167 153.833 247.833 154.167 255.5 154.5 C 217.747 219.67 180.247 285.004 143 350.5 C 142.333 353.167 142.333 355.833 143 358.5 C 168.481 404.127 194.481 449.461 221 494.5 C 223.167 499.333 226.667 502.833 231.5 505 C 277.17 505.167 322.837 505.667 368.5 506.5 C 361.502 519.166 354.002 531.5 346 543.5 C 341.573 548.789 336.073 552.122 329.5 553.5 Z" stroke-linecap="round" />
</g>
<g transform="matrix(1 0 0 1 377.53 390)"  >
<path style="stroke: none; stroke-width: 1; stroke-dasharray: none; stroke-linecap: butt; stroke-dashoffset: 0; stroke-linejoin: miter; stroke-miterlimit: 4; fill: rgb(28,38,91); fill-rule: evenodd; opacity: 0.982;"  transform=" translate(-377.53, -390)" d="M 516.5 304.5 C 518.433 305.642 519.933 307.308 521 309.5 C 527.873 320.372 533.873 331.706 539 343.5 C 540.315 351.827 539.315 359.827 536 367.5 C 518.081 397.669 500.414 428.003 483 458.5 C 477.991 466.761 470.824 472.261 461.5 475 C 391.833 475.667 322.167 475.667 252.5 475 C 246.662 473.833 241.829 471 238 466.5 C 230.626 453.585 223.126 440.751 215.5 428 C 286.672 427.198 357.839 427.364 429 428.5 C 438.691 430.094 446.024 426.76 451 418.5 C 473.11 380.608 494.943 342.608 516.5 304.5 Z" stroke-linecap="round" />
</g>
</svg>