<?xml version="1.0" encoding="utf-8"?>
<!-- Generator: Adobe Illustrator 27.0.0, SVG Export Plug-In . SVG Version: 6.00 Build 0)  -->
<svg version="1.1" id="Layer_1" xmlns="http://www.w3.org/2000/svg" xmlns:xlink="http://www.w3.org/1999/xlink" x="0px" y="0px"
	 viewBox="0 0 500 500" style="enable-background:new 0 0 500 500;" xml:space="preserve">
<style type="text/css">
	.st0{fill:#FFFFFF;}
	.st1{fill:#4374BA;}
	.st2{font-family:'SegoeUI';}
	.st3{font-size:70.7166px;}
	.st4{letter-spacing:32;}
</style>
<rect class="st0" width="500" height="500"/>
<g>
	<g>
		<path class="st1" d="M159.6,208.7c0.6-16.9,8.3-30.6,23.5-40.1c3.2-2,6.1-3.2,9.2,0.2c0.9,1,2.4,1.9,3.7,2.1c6.9,1,7.5,5,6.3,10.8
			c-1.3,6.2-1.2,12.8-3.1,18.8c-2.7,8.5,2,13.6,6.6,19.2c0.8,1,1.8,2.1,2.8,0.5c3.4-5.3,9.6-8.9,7.4-17.1c-2-7.5-2.3-15.4-3.7-23.1
			c-0.8-4.5-0.3-7.6,4.9-8.4c1.2-0.2,2.5-0.8,3.3-1.6c5.1-5.3,9.7-2.7,14.4,0.7c18.5,13.2,25.3,37.5,16.3,58.2
			c-9.2,21.1-31.2,32.2-54.3,27.6C175.5,252.2,159.5,232.1,159.6,208.7L159.6,208.7z"/>
		<path class="st1" d="M81.5,191.6c-6.7,19.6-13.4,39.2-20.1,58.8c-1.9,5.4-10,8.6-15.2,6.1c-1.3-0.7-1.5-2-1.8-3
			c-10.2-29.3-20.3-58.6-30.4-88c-0.1-0.4,0-0.8,0-1.8c4.5,0,9,0.1,13.5,0c3.9-0.1,4,2.9,4.8,5.3c6.3,19.5,12.7,39.1,19,58.6
			c0.3,0.9,0.6,1.8,1.6,4.5c1.5-4.4,2.5-7.4,3.5-10.3c6-18.1,12.1-36.2,17.9-54.5c1.3-4.1,3.8-4.3,6.9-3.9c3.4,0.4,7.7-2,9.5,3.9
			c6,19.2,12.5,38.3,18.9,57.4c0.6,1.9,1.3,3.8,2,5.9c2.5-0.8,2.3-3,2.8-4.5c6-18.4,12-36.7,17.5-55.2c1.6-5.3,3.8-7.6,9.8-7.2
			c9.4,0.6,9.5,0.2,6.4,9c-9.1,26.4-18.5,52.7-27.2,79.3c-1.8,5.3-5,4.8-8.8,4.9c-4,0.1-7,0.3-8.7-5c-6.4-20.1-13.5-40-20.4-59.9
			C82.4,191.6,81.9,191.6,81.5,191.6L81.5,191.6z"/>
		<path class="st1" d="M452.8,255.7c-6.7,0-12,0-17.3,0c-3.3,0-4.3-3-5.8-5c-8.3-10.8-16.5-21.6-24.5-32.5c-2.3-3.1-3.5-3.3-6.9-0.7
			c-9.9,7.7-12.5,17.4-11.1,29.2c0.3,2.7,1.9,7.3-1.4,8.3c-3.9,1.3-8.5,0.5-12.8,0.3c-2-0.1-1.4-2.2-1.4-3.5c0-28.2,0-56.5-0.1-84.7
			c0-2.6,0.9-3.4,3.5-3.7c12.3-1,12.3-1.1,12.3,10.9c0,11.3,0,22.6,0,35.6c4.7-5,8.4-8.7,12-12.5c8.6-9.1,17.4-18.2,25.8-27.5
			c4.3-4.8,8.8-7.6,15.4-6.6c2.9,0.5,6,0.1,10.7,0.1c-9.3,9.6-17.4,17.9-25.4,26.3c-4.1,4.3-10.9,8.4-11.4,13.2
			c-0.6,5.3,6.3,10,10,14.9C433.3,230.2,442.6,242.2,452.8,255.7L452.8,255.7z"/>
		<path class="st1" d="M207.6,167.5c-11.2,0.2-20.9-9.2-21.1-20.6c-0.2-11.6,9.3-21.4,20.9-21.4c11.2,0,20.8,9.6,20.9,20.9
			C228.3,157.7,218.9,167.3,207.6,167.5L207.6,167.5z"/>
		<path class="st1" d="M342.5,240c-3.6-5-6.9-10.3-10.7-15.1c-2.7-3.3-2-4.3,1.7-5.8c13-5.4,18.4-15.2,17.3-30.1
			c-0.9-12-9-21-22.1-24c-12.4-2.9-25-0.9-37.5-1.3c-4.7-0.1-10.6-1.4-13.9,0.8c-4.1,2.8-1.3,9.1-1.4,13.8
			c-0.3,24.1-0.3,48.2-0.2,72.3c0,1.8-1,4.7,2.1,4.9c4.3,0.3,9.1,1.6,12.7-0.6c2.6-1.6,0.8-6.1,1-9.3c0.2-2.7,0-5.3,0-8
			c0-14.1,0-14,14.2-14.2c4.6-0.1,7.6,1.1,10.1,5.1c5.2,8.1,11,15.9,16.6,23.8c1.3,1.9,2.6,3.6,5.3,3.5c4.9-0.2,9.8-0.1,16-0.1
			C349.4,249.7,345.9,244.9,342.5,240L342.5,240z M293.7,209.3c-2.2,0.1-2.2-2-2.2-3.7c0-4.1,0-8.2,0-12.3
			c0-10.4,5.3-15.5,15.8-15.6c5.3,0,10.7-0.2,15.9,1.1c6.7,1.7,10.8,6.3,11.4,12.8c0.6,7.4-2.5,13.3-9.2,15.8
			C315.1,211.3,304.3,208.9,293.7,209.3L293.7,209.3z"/>
	</g>
	<text transform="matrix(1 0 0 1 41.3127 345.4235)" class="st1 st2 st3 st4">HUB SO</text>
</g>
</svg>
