<?xml version="1.0" encoding="UTF-8"?>
<svg id="Layer_1" data-name="Layer 1" xmlns="http://www.w3.org/2000/svg" viewBox="0 0 800 800">
  <defs>
    <style>
      .cls-1 {
        fill: #f5f5f5;
      }

      .cls-2 {
        font-family: SegoeUI, 'Segoe UI';
        font-size: 56.82px;
        letter-spacing: .46em;
      }

      .cls-2, .cls-3 {
        fill: #4374ba;
      }
    </style>
  </defs>
  <rect class="cls-1" width="31.88" height="32"/>
  <g>
    <g>
      <path class="cls-3" d="M328.08,366.81c.52-13.57,6.66-24.61,18.87-32.19,2.55-1.59,4.91-2.61,7.39,.17,.73,.82,1.92,1.53,2.99,1.68,5.5,.77,6.04,4.01,5.03,8.68-1.08,4.99-.98,10.31-2.51,15.12-2.17,6.8,1.63,10.92,5.27,15.4,.67,.82,1.43,1.69,2.28,.36,2.71-4.23,7.72-7.16,5.96-13.73-1.62-6.02-1.89-12.39-3.01-18.56-.65-3.59-.27-6.14,3.98-6.73,.93-.13,2-.61,2.65-1.27,4.13-4.27,7.75-2.19,11.6,.55,14.84,10.6,20.35,30.15,13.07,46.77-7.41,16.92-25.1,25.91-43.64,22.17-17.18-3.47-30-19.64-29.92-38.43Z"/>
      <path class="cls-3" d="M265.26,353.03c-5.39,15.74-10.77,31.49-16.16,47.23-1.49,4.34-8.04,6.94-12.19,4.88-1.06-.53-1.18-1.57-1.48-2.43-8.16-23.55-16.28-47.11-24.38-70.68-.1-.29-.01-.65-.01-1.44,3.62,0,7.23,.1,10.83-.03,3.14-.11,3.19,2.35,3.82,4.28,5.1,15.69,10.16,31.4,15.24,47.1,.24,.74,.52,1.47,1.26,3.58,1.21-3.56,2.04-5.91,2.83-8.29,4.82-14.58,9.76-29.12,14.36-43.76,1.04-3.31,3.04-3.48,5.57-3.16,2.77,.35,6.16-1.59,7.63,3.11,4.84,15.44,10.07,30.75,15.15,46.11,.51,1.54,1.05,3.08,1.61,4.7,1.99-.62,1.82-2.38,2.22-3.6,4.79-14.76,9.63-29.51,14.1-44.37,1.29-4.3,3.05-6.12,7.84-5.8,7.57,.5,7.6,.13,5.16,7.2-7.33,21.22-14.85,42.38-21.87,63.7-1.42,4.3-4,3.88-7.1,3.94-3.18,.07-5.66,.21-7.01-4.01-5.15-16.15-10.86-32.13-16.35-48.17-.36-.03-.72-.06-1.07-.09Z"/>
      <path class="cls-3" d="M563.66,404.58c-5.41,0-9.66,.02-13.91,0-2.64-.02-3.45-2.4-4.69-4-6.65-8.64-13.23-17.34-19.68-26.13-1.85-2.52-2.79-2.69-5.55-.55-7.95,6.17-10.08,14.01-8.92,23.5,.27,2.21,1.53,5.83-1.13,6.7-3.14,1.02-6.86,.44-10.31,.25-1.57-.09-1.16-1.78-1.16-2.84-.02-22.68,0-45.36-.04-68.04,0-2.12,.71-2.76,2.85-2.93,9.92-.77,9.91-.85,9.91,8.79,0,9.07,0,18.13,0,28.64,3.81-3.99,6.73-7,9.6-10.04,6.93-7.34,13.97-14.59,20.7-22.11,3.42-3.83,7.06-6.13,12.4-5.29,2.35,.37,4.82,.06,8.58,.06-7.45,7.7-13.98,14.4-20.45,21.16-3.31,3.45-8.73,6.74-9.17,10.57-.49,4.26,5.06,8.01,8,11.97,7.3,9.8,14.75,19.48,22.97,30.31Z"/>
      <path class="cls-3" d="M366.62,333.69c-9.03,.16-16.79-7.41-16.97-16.55-.18-9.34,7.49-17.18,16.82-17.18,9.03,0,16.73,7.71,16.77,16.78,.04,9.09-7.5,16.79-16.61,16.95Z"/>
      <path class="cls-3" d="M475,391.97c-2.87-4.04-5.52-8.26-8.62-12.11-2.14-2.66-1.62-3.43,1.38-4.67,10.44-4.32,14.8-12.2,13.87-24.2-.75-9.67-7.22-16.89-17.74-19.31-9.96-2.3-20.11-.69-30.17-1.01-3.79-.12-8.5-1.15-11.16,.65-3.27,2.22-1.07,7.32-1.12,11.12-.24,19.36-.2,38.72-.2,58.07,0,1.47-.83,3.75,1.69,3.93,3.43,.24,7.34,1.25,10.2-.48,2.12-1.29,.62-4.92,.81-7.51,.15-2.14,.03-4.3,.03-6.45,0-11.36,0-11.21,11.45-11.42,3.7-.07,6.08,.92,8.14,4.13,4.19,6.53,8.86,12.75,13.32,19.12,1.06,1.52,2.06,2.86,4.29,2.77,3.93-.15,7.87-.04,12.82-.04-3.45-4.82-6.24-8.69-9-12.58Zm-39.22-24.66c-1.79,.07-1.77-1.63-1.78-2.96-.02-3.3,0-6.6,0-9.9q0-12.49,12.7-12.49c4.29,0,8.58-.13,12.79,.92,5.4,1.35,8.71,5.08,9.16,10.31,.51,5.92-2.01,10.67-7.37,12.66-8.3,3.07-16.99,1.15-25.51,1.47Z"/>
    </g>
    <text class="cls-2" transform="translate(232.99 476.68)"><tspan x="0" y="0">HUB SO</tspan></text>
  </g>
</svg>