<?xml version="1.0" encoding="UTF-8"?>
<svg id="Layer_1" data-name="Layer 1" xmlns="http://www.w3.org/2000/svg" viewBox="0 0 500 500">
  <defs>
    <style>
      .cls-1 {
        fill:#f5f5f5 ;
      }

      .cls-2 {
        font-family: SegoeUI, 'Segoe UI';
        font-size: 53.05px;
        letter-spacing: .46em;
      }

      .cls-2, .cls-3 {
        fill: #4374ba;
      }
    </style>
  </defs>
  <rect class="cls-1" width="500" height="500"/>
  <g>
    <g>
      <path class="cls-3" d="M182.05,219.01c.48-12.67,6.21-22.97,17.62-30.05,2.39-1.48,4.58-2.43,6.9,.16,.68,.76,1.79,1.43,2.79,1.57,5.14,.72,5.64,3.74,4.69,8.1-1.01,4.66-.91,9.62-2.35,14.12-2.02,6.34,1.52,10.2,4.92,14.38,.63,.77,1.34,1.58,2.13,.34,2.53-3.95,7.21-6.69,5.56-12.82-1.51-5.62-1.76-11.57-2.81-17.33-.61-3.35-.25-5.73,3.71-6.28,.87-.12,1.87-.57,2.47-1.19,3.86-3.98,7.24-2.05,10.83,.52,13.85,9.9,19,28.14,12.2,43.67-6.92,15.8-23.44,24.19-40.74,20.7-16.04-3.24-28.01-18.33-27.93-35.88Z"/>
      <path class="cls-3" d="M123.4,206.15c-5.03,14.7-10.06,29.4-15.09,44.09-1.39,4.05-7.5,6.48-11.38,4.56-.99-.49-1.1-1.47-1.38-2.26-7.62-21.98-15.2-43.99-22.77-65.99-.09-.27-.01-.6-.01-1.34,3.38,0,6.75,.09,10.11-.03,2.93-.11,2.98,2.19,3.57,4,4.76,14.65,9.49,29.32,14.23,43.97,.22,.69,.48,1.37,1.17,3.34,1.13-3.32,1.91-5.52,2.64-7.74,4.5-13.61,9.11-27.18,13.41-40.86,.97-3.09,2.84-3.24,5.2-2.95,2.58,.32,5.75-1.49,7.13,2.9,4.52,14.41,9.4,28.71,14.15,43.05,.48,1.44,.98,2.87,1.5,4.39,1.86-.58,1.7-2.22,2.07-3.37,4.47-13.78,8.99-27.55,13.16-41.42,1.21-4.01,2.85-5.71,7.32-5.41,7.07,.47,7.1,.12,4.82,6.72-6.85,19.81-13.86,39.56-20.42,59.47-1.32,4.01-3.73,3.62-6.62,3.68-2.97,.06-5.28,.19-6.54-3.75-4.81-15.08-10.14-30-15.27-44.97-.33-.03-.67-.06-1-.09Z"/>
      <path class="cls-3" d="M401.99,254.28c-5.05,0-9.02,.02-12.99,0-2.46-.02-3.22-2.24-4.37-3.74-6.21-8.07-12.35-16.19-18.37-24.39-1.73-2.35-2.6-2.51-5.18-.52-7.42,5.76-9.41,13.08-8.33,21.94,.25,2.06,1.43,5.45-1.06,6.26-2.93,.95-6.41,.41-9.63,.23-1.47-.08-1.08-1.66-1.08-2.65-.02-21.18,0-42.35-.04-63.53,0-1.98,.67-2.58,2.66-2.74,9.26-.72,9.25-.79,9.25,8.21,0,8.46,0,16.93,0,26.74,3.56-3.72,6.28-6.53,8.97-9.38,6.47-6.86,13.05-13.62,19.33-20.64,3.2-3.57,6.59-5.73,11.58-4.94,2.2,.35,4.5,.06,8.01,.06-6.95,7.18-13.05,13.44-19.09,19.75-3.09,3.22-8.15,6.3-8.56,9.87-.46,3.98,4.72,7.48,7.47,11.17,6.81,9.15,13.77,18.19,21.44,28.3Z"/>
      <path class="cls-3" d="M218.03,188.09c-8.43,.15-15.68-6.92-15.85-15.45-.17-8.72,6.99-16.04,15.7-16.04,8.43,0,15.62,7.19,15.65,15.67,.04,8.49-7.01,15.67-15.51,15.82Z"/>
      <path class="cls-3" d="M319.22,242.5c-2.68-3.78-5.15-7.71-8.05-11.31-2-2.48-1.51-3.2,1.29-4.36,9.75-4.03,13.82-11.39,12.95-22.59-.7-9.03-6.74-15.76-16.56-18.03-9.3-2.15-18.77-.64-28.16-.95-3.54-.11-7.94-1.08-10.41,.61-3.06,2.08-1,6.83-1.04,10.38-.22,18.07-.19,36.15-.18,54.22,0,1.37-.78,3.51,1.58,3.67,3.21,.22,6.86,1.17,9.52-.45,1.98-1.2,.58-4.6,.75-7.01,.14-2,.03-4.01,.03-6.02,0-10.6,0-10.47,10.69-10.66,3.45-.06,5.67,.86,7.6,3.86,3.92,6.1,8.27,11.91,12.43,17.85,.99,1.42,1.93,2.67,4,2.59,3.67-.14,7.35-.04,11.97-.04-3.22-4.5-5.82-8.11-8.4-11.74Zm-36.62-23.02c-1.67,.06-1.65-1.53-1.66-2.77-.02-3.08,0-6.16,0-9.24q0-11.66,11.86-11.67c4.01,0,8.01-.12,11.94,.86,5.04,1.26,8.13,4.74,8.55,9.63,.48,5.53-1.87,9.97-6.88,11.82-7.74,2.87-15.86,1.07-23.82,1.37Z"/>
    </g>
    <text class="cls-2" transform="translate(93.28 321.58)"><tspan x="0" y="0">HUB SO</tspan></text>
  </g>
</svg>